<svg width="35" height="35" viewBox="0 0 35 35" fill="none" xmlns="http://www.w3.org/2000/svg">
<path d="M11.6755 2.93738C10.87 2.93738 10.2171 3.59071 10.2171 4.39571C6.99552 4.39571 4.38364 7.00758 4.38379 10.229V11.7778L30.6338 11.6874V10.229C30.6338 7.00758 28.022 4.39571 24.8004 4.39571C24.8004 3.59071 24.1475 2.93738 23.3421 2.93738C22.5367 2.93738 21.8838 3.59071 21.8838 4.39571H13.1338C13.1338 3.59071 12.4809 2.93738 11.6755 2.93738ZM4.38379 14.604V24.8124C4.38379 28.0338 6.99552 30.6457 10.2171 30.6457H24.8004C28.022 30.6457 30.6339 28.0338 30.6338 24.8124V14.604H4.38379ZM11.6755 17.5207C12.4809 17.5207 13.1338 18.174 13.1338 18.979C13.1338 19.784 12.4809 20.4374 11.6755 20.4374C10.87 20.4374 10.2171 19.784 10.2171 18.979C10.2171 18.174 10.87 17.5207 11.6755 17.5207ZM17.5088 17.5207C18.3142 17.5207 18.9671 18.174 18.9671 18.979C18.9671 19.784 18.3142 20.4374 17.5088 20.4374C16.7033 20.4374 16.0504 19.784 16.0504 18.979C16.0504 18.174 16.7033 17.5207 17.5088 17.5207ZM23.3421 17.5207C24.1475 17.5207 24.8004 18.174 24.8004 18.979C24.8004 19.784 24.1475 20.4374 23.3421 20.4374C22.5367 20.4374 21.8838 19.784 21.8838 18.979C21.8838 18.174 22.5367 17.5207 23.3421 17.5207ZM11.6755 21.8957C12.4809 21.8957 13.1338 22.549 13.1338 23.354C13.1338 24.159 12.4809 24.8124 11.6755 24.8124C10.87 24.8124 10.2171 24.159 10.2171 23.354C10.2171 22.549 10.87 21.8957 11.6755 21.8957ZM17.5088 21.8957C18.3142 21.8957 18.9671 22.549 18.9671 23.354C18.9671 24.159 18.3142 24.8124 17.5088 24.8124C16.7033 24.8124 16.0504 24.159 16.0504 23.354C16.0504 22.549 16.7033 21.8957 17.5088 21.8957ZM23.3421 21.8957C24.1475 21.8957 24.8004 22.549 24.8004 23.354C24.8004 24.159 24.1475 24.8124 23.3421 24.8124C22.5367 24.8124 21.8838 24.159 21.8838 23.354C21.8838 22.549 22.5367 21.8957 23.3421 21.8957Z" fill="#161720"/>
</svg>
