<svg width="35" height="35" viewBox="0 0 35 35" fill="none" xmlns="http://www.w3.org/2000/svg">
<path d="M17.5206 2.91504C9.46651 2.91504 2.93726 9.444 2.93726 17.4984C2.93726 25.5527 9.46651 32.0817 17.5206 32.0817C25.5747 32.0817 32.1039 25.5527 32.1039 17.4984C32.1039 9.444 25.5747 2.91504 17.5206 2.91504ZM17.5206 8.74837C18.326 8.74837 18.9789 9.4017 18.9789 10.2067V16.8596L22.9438 20.8248C23.5133 21.395 23.5133 22.3517 22.9438 22.9219C22.3742 23.4906 21.417 23.4906 20.8473 22.9219L16.4723 18.5469C16.1989 18.2727 16.0623 17.8848 16.0623 17.4984V10.2067C16.0623 9.4017 16.7152 8.74837 17.5206 8.74837Z" fill="#161720"/>
</svg>
