<svg width="30" height="31" viewBox="0 0 30 31" fill="none" xmlns="http://www.w3.org/2000/svg">
<path d="M12.6 13.7532C12.6625 13.3407 12.8 12.9782 12.975 12.6657C13.15 12.3532 13.4 12.0907 13.7125 11.8907C14.0125 11.7032 14.3875 11.6157 14.85 11.6032C15.1375 11.6157 15.4 11.6657 15.6375 11.7657C15.8875 11.8782 16.1125 12.0282 16.2875 12.2157C16.4625 12.4032 16.6 12.6282 16.7125 12.8782C16.825 13.1282 16.875 13.4032 16.8875 13.6782H19.125C19.1 13.0907 18.9875 12.5532 18.775 12.0657C18.5625 11.5782 18.275 11.1532 17.9 10.8032C17.525 10.4532 17.075 10.1782 16.55 9.97822C16.025 9.77822 15.45 9.69072 14.8125 9.69072C14 9.69072 13.2875 9.82822 12.6875 10.1157C12.0875 10.4032 11.5875 10.7782 11.1875 11.2657C10.7875 11.7532 10.4875 12.3157 10.3 12.9657C10.1125 13.6157 10 14.2907 10 15.0157V15.3532C10 16.0782 10.1 16.7532 10.2875 17.4032C10.475 18.0532 10.775 18.6157 11.175 19.0907C11.575 19.5657 12.075 19.9532 12.675 20.2282C13.275 20.5032 13.9875 20.6532 14.8 20.6532C15.3875 20.6532 15.9375 20.5532 16.45 20.3657C16.9625 20.1782 17.4125 19.9157 17.8 19.5782C18.1875 19.2407 18.5 18.8532 18.725 18.4032C18.95 17.9532 19.0875 17.4782 19.1 16.9657H16.8625C16.85 17.2282 16.7875 17.4657 16.675 17.6907C16.5625 17.9157 16.4125 18.1032 16.225 18.2657C16.0375 18.4282 15.825 18.5532 15.575 18.6407C15.3375 18.7282 15.0875 18.7532 14.825 18.7657C14.375 18.7532 14 18.6657 13.7125 18.4782C13.4 18.2782 13.15 18.0157 12.975 17.7032C12.8 17.3907 12.6625 17.0157 12.6 16.6032C12.5375 16.1907 12.5 15.7657 12.5 15.3532V15.0157C12.5 14.5782 12.5375 14.1657 12.6 13.7532ZM15 2.67822C8.1 2.67822 2.5 8.27822 2.5 15.1782C2.5 22.0782 8.1 27.6782 15 27.6782C21.9 27.6782 27.5 22.0782 27.5 15.1782C27.5 8.27822 21.9 2.67822 15 2.67822ZM15 25.1782C9.4875 25.1782 5 20.6907 5 15.1782C5 9.66572 9.4875 5.17822 15 5.17822C20.5125 5.17822 25 9.66572 25 15.1782C25 20.6907 20.5125 25.1782 15 25.1782Z" fill="#161720"/>
</svg>
