<svg width="41" height="41" viewBox="0 0 41 41" fill="none" xmlns="http://www.w3.org/2000/svg">
<path d="M13.8306 5.57373C9.22898 5.57373 5.49731 9.30539 5.49731 13.9071V27.2404C5.49731 31.842 9.22898 35.5737 13.8306 35.5737H27.164C31.7656 35.5737 35.4973 31.842 35.4973 27.2404V13.9071C35.4973 9.30539 31.7656 5.57373 27.164 5.57373H13.8306ZM13.8306 8.90706H27.164C29.9256 8.90706 32.164 11.1454 32.164 13.9071V27.2404C32.164 30.002 29.9256 32.2404 27.164 32.2404H13.8306C11.069 32.2404 8.83065 30.002 8.83065 27.2404V13.9071C8.83065 11.1454 11.069 8.90706 13.8306 8.90706ZM27.164 12.2404C26.244 12.2404 25.4973 12.9871 25.4973 13.9071C25.4973 14.8271 26.244 15.5737 27.164 15.5737C28.084 15.5737 28.8306 14.8271 28.8306 13.9071C28.8306 12.9871 28.084 12.2404 27.164 12.2404ZM20.4973 13.9071C16.8156 13.9071 13.8306 16.8921 13.8306 20.5737C13.8306 24.2554 16.8156 27.2404 20.4973 27.2404C24.179 27.2404 27.164 24.2554 27.164 20.5737C27.164 16.8921 24.179 13.9071 20.4973 13.9071ZM20.4973 17.2404C22.339 17.2404 23.8306 18.7321 23.8306 20.5737C23.8306 22.4154 22.339 23.9071 20.4973 23.9071C18.6556 23.9071 17.164 22.4154 17.164 20.5737C17.164 18.7321 18.6556 17.2404 20.4973 17.2404Z" fill="#161720"/>
</svg>
