<svg width="30" height="31" viewBox="0 0 30 31" fill="none" xmlns="http://www.w3.org/2000/svg">
<path d="M14.9987 3.03027C8.09491 3.03027 2.49866 8.62677 2.49866 15.5303C2.49866 17.3228 2.91116 19.0498 3.63116 20.6475C2.60616 25.9413 2.53741 26.5459 2.53741 26.5459C2.36991 27.4129 3.11491 28.1554 3.98366 27.9913C3.98366 27.9913 4.53491 27.8702 9.88116 26.8584C11.4787 27.5783 13.2062 28.0303 14.9987 28.0303C21.9024 28.0303 27.4987 22.4338 27.4987 15.5303C27.4987 8.62677 21.9024 3.03027 14.9987 3.03027ZM11.4836 9.28027C12.6549 9.28027 14.2174 10.8428 14.2174 12.0147C14.2174 12.4053 13.3999 13.7945 13.4362 13.9678C13.6962 15.2088 15.3162 16.868 16.5612 17.0928C16.7099 17.1197 18.1237 16.3115 18.5137 16.3115C19.6862 16.3115 21.2487 17.874 21.2487 19.0459C21.2487 20.2178 19.6862 21.7803 18.5137 21.7803C17.0037 21.7803 14.2174 20.2178 12.6549 18.6553C12.4862 18.4872 12.0424 18.0422 11.8737 17.874C10.3112 16.3115 8.74866 13.5249 8.74866 12.0147C8.74866 10.8428 10.3111 9.28027 11.4836 9.28027Z" fill="#161720"/>
</svg>
